<svg id="Capa_1" enable-background="new 0 0 510 510" height="512" viewBox="0 0 510 510" width="512" xmlns="http://www.w3.org/2000/svg" xmlns:xlink="http://www.w3.org/1999/xlink"><linearGradient id="lg1"><stop offset="0" stop-color="#8a7889"/><stop offset="1" stop-color="#6e566e"/></linearGradient><linearGradient id="SVGID_1_" gradientUnits="userSpaceOnUse" x1="139.59" x2="275.59" xlink:href="#lg1" y1="98.405" y2="319.738"/><linearGradient id="SVGID_2_" gradientUnits="userSpaceOnUse" x1="255" x2="255" y1="432.803" y2="512.706"><stop offset="0" stop-color="#ff637b"/><stop offset="1" stop-color="#e63950"/></linearGradient><linearGradient id="SVGID_3_" gradientUnits="userSpaceOnUse" x1="345.496" x2="277.471" y1="491.949" y2="344.07"><stop offset="0" stop-color="#e63950" stop-opacity="0"/><stop offset=".0467" stop-color="#e4354b" stop-opacity=".047"/><stop offset=".4669" stop-color="#d31822" stop-opacity=".467"/><stop offset=".7991" stop-color="#c90709" stop-opacity=".799"/><stop offset="1" stop-color="#c50000"/></linearGradient><linearGradient id="lg2"><stop offset="0" stop-color="#fce9cb"/><stop offset="1" stop-color="#ffbd95"/></linearGradient><linearGradient id="SVGID_4_" gradientUnits="userSpaceOnUse" x1="108.364" x2="137.417" xlink:href="#lg2" y1="234.042" y2="263.096"/><linearGradient id="SVGID_5_" gradientUnits="userSpaceOnUse" x1="387.101" x2="416.155" xlink:href="#lg2" y1="234.042" y2="263.096"/><linearGradient id="SVGID_6_" gradientUnits="userSpaceOnUse" x1="186.343" x2="309.565" xlink:href="#lg2" y1="134.548" y2="329.154"/><linearGradient id="SVGID_7_" gradientUnits="userSpaceOnUse" x1="184.041" x2="210.533" xlink:href="#lg1" y1="213.201" y2="239.693"/><linearGradient id="lg3"><stop offset="0" stop-color="#6e566e" stop-opacity="0"/><stop offset=".0471" stop-color="#6e566e" stop-opacity=".047"/><stop offset="1" stop-color="#6e566e"/></linearGradient><linearGradient id="SVGID_8_" gradientUnits="userSpaceOnUse" x1="192.404" x2="220.52" xlink:href="#lg3" y1="228.694" y2="176.402"/><linearGradient id="SVGID_9_" gradientUnits="userSpaceOnUse" x1="310.653" x2="337.145" xlink:href="#lg1" y1="213.201" y2="239.693"/><linearGradient id="SVGID_10_" gradientUnits="userSpaceOnUse" x1="319.017" x2="347.133" xlink:href="#lg3" y1="228.694" y2="176.402"/><linearGradient id="lg4"><stop offset="0" stop-color="#faa68e" stop-opacity="0"/><stop offset="1" stop-color="#c9766e"/></linearGradient><linearGradient id="SVGID_11_" gradientUnits="userSpaceOnUse" x1="382.202" x2="344.81" xlink:href="#lg4" y1="312.923" y2="301.875"/><linearGradient id="lg5"><stop offset="0" stop-color="#edf5ff"/><stop offset="1" stop-color="#d5e8fe"/></linearGradient><linearGradient id="SVGID_12_" gradientUnits="userSpaceOnUse" x1="139.489" x2="128.016" xlink:href="#lg5" y1="350.682" y2="371.502"/><linearGradient id="SVGID_13_" gradientUnits="userSpaceOnUse" x1="118.801" x2="107.329" xlink:href="#lg5" y1="244.874" y2="259.321"/><linearGradient id="SVGID_14_" gradientTransform="matrix(-1 0 0 1 -1454.389 0)" gradientUnits="userSpaceOnUse" x1="-1824.9" x2="-1836.372" xlink:href="#lg5" y1="350.682" y2="371.502"/><linearGradient id="SVGID_15_" gradientTransform="matrix(-1 0 0 1 -1454.389 0)" gradientUnits="userSpaceOnUse" x1="-1845.588" x2="-1857.06" xlink:href="#lg5" y1="244.874" y2="259.321"/><linearGradient id="SVGID_16_" gradientUnits="userSpaceOnUse" x1="255" x2="255" xlink:href="#lg4" y1="239.924" y2="453.396"/><linearGradient id="SVGID_17_" gradientUnits="userSpaceOnUse" x1="232.101" x2="270.236" y1="294.968" y2="363.386"><stop offset="0" stop-color="#9ae1d3"/><stop offset="1" stop-color="#80d1c1"/></linearGradient><linearGradient id="lg6"><stop offset="0" stop-color="#0b799d" stop-opacity="0"/><stop offset=".1739" stop-color="#117d9e" stop-opacity=".174"/><stop offset=".414" stop-color="#2389a0" stop-opacity=".414"/><stop offset=".6928" stop-color="#409ca3" stop-opacity=".693"/><stop offset=".9986" stop-color="#69b7a8" stop-opacity=".999"/><stop offset="1" stop-color="#69b7a8"/></linearGradient><linearGradient id="SVGID_18_" gradientUnits="userSpaceOnUse" x1="255" x2="255" xlink:href="#lg6" y1="279.971" y2="251.931"/><linearGradient id="SVGID_19_" gradientUnits="userSpaceOnUse" x1="255" x2="255" xlink:href="#lg5" y1="244.64" y2="263.181"/><linearGradient id="SVGID_20_" gradientUnits="userSpaceOnUse" x1="255" x2="255" xlink:href="#lg6" y1="402.62" y2="435.694"/><linearGradient id="SVGID_21_" gradientUnits="userSpaceOnUse" x1="255" x2="255" xlink:href="#lg6" y1="322.71" y2="245.159"/><linearGradient id="SVGID_22_" gradientUnits="userSpaceOnUse" x1="255" x2="255" xlink:href="#lg6" y1="352.641" y2="297.014"/><linearGradient id="SVGID_23_" gradientUnits="userSpaceOnUse" x1="255" x2="255" xlink:href="#lg6" y1="384.939" y2="352.97"/><linearGradient id="SVGID_24_" gradientUnits="userSpaceOnUse" x1="192.019" x2="328.019" xlink:href="#lg1" y1="66.189" y2="287.523"/><linearGradient id="SVGID_25_" gradientUnits="userSpaceOnUse" x1="397.666" x2="333.666" y1="128.544" y2="165.211"><stop offset="0" stop-color="#6e566e" stop-opacity="0"/><stop offset=".2944" stop-color="#674d66" stop-opacity=".294"/><stop offset="1" stop-color="#593b56"/></linearGradient><g><path d="m90.934 468.62h328.132c13.539-98.333 18.525-197.312 14.96-296.121-3.475-96.29-82.673-172.499-179.026-172.499-96.353 0-175.551 76.209-179.026 172.499-3.566 98.808 1.421 197.788 14.96 296.121z" fill="url(#SVGID_1_)"/><path d="m486.754 463.53c12.805 14.415 3.674 37.25-15.537 38.897-55.03 4.716-127.891 7.573-207.827 7.573-88.483 0-168.293-3.502-224.84-9.136-18.978-1.891-28.082-24.562-15.317-38.732.096-.107.192-.213.288-.32 56.824-63.133 139.197-102.821 230.831-102.821 90.65 0 172.172 38.793 228.952 100.717 1.16 1.265 2.31 2.538 3.45 3.822z" fill="url(#SVGID_2_)"/><path d="m486.754 463.53c-1.14-1.283-2.29-2.557-3.45-3.821-56.779-61.925-138.301-100.717-228.952-100.717-39.844 0-77.936 7.507-112.939 21.179 1.545 6.692 4.441 13.377 6.69 20.051 1.842 5.468 4.366 10.195 9.002 13.677l96.084 96.084c3.389.01 6.786.017 10.201.017 79.935 0 152.797-2.857 207.827-7.573 19.211-1.647 28.341-24.482 15.537-38.897z" fill="url(#SVGID_3_)"/><g><path d="m115.631 280.922c-16.863 0-30.534-13.67-30.534-30.534v-18.158c0-16.863 13.67-30.534 30.534-30.534 16.863 0 30.534 13.67 30.534 30.534v18.159c0 16.863-13.671 30.533-30.534 30.533z" fill="url(#SVGID_4_)"/><path d="m394.369 280.922c-16.863 0-30.534-13.67-30.534-30.534v-18.158c0-16.863 13.67-30.534 30.534-30.534 16.863 0 30.534 13.67 30.534 30.534v18.159c-.001 16.863-13.671 30.533-30.534 30.533z" fill="url(#SVGID_5_)"/></g><path d="m255 428.583c76.292 0 139.053-60.317 141.809-136.559 1.182-32.689 1.182-65.401 0-98.089-2.757-76.242-65.517-136.56-141.809-136.56-76.291 0-139.052 60.317-141.808 136.559-1.182 32.689-1.182 65.401 0 98.089 2.756 76.242 65.516 136.56 141.808 136.56z" fill="url(#SVGID_6_)"/><g><g><path d="m212.148 220.855c0 11.297-9.158 20.455-20.455 20.455s-20.454-9.158-20.454-20.455 9.158-20.455 20.454-20.455c11.297 0 20.455 9.158 20.455 20.455z" fill="url(#SVGID_7_)"/><path d="m200.844 202.557c1.38 2.753 2.157 5.861 2.157 9.15 0 11.297-9.158 20.455-20.454 20.455-3.289 0-6.397-.778-9.15-2.157 3.358 6.703 10.29 11.305 18.297 11.305 11.297 0 20.455-9.158 20.455-20.455-.001-8.008-4.603-14.94-11.305-18.298z" fill="url(#SVGID_8_)"/></g><g><path d="m338.761 220.855c0 11.297-9.158 20.455-20.455 20.455s-20.454-9.158-20.454-20.455 9.158-20.455 20.454-20.455c11.297 0 20.455 9.158 20.455 20.455z" fill="url(#SVGID_9_)"/><path d="m327.456 202.557c1.38 2.753 2.157 5.861 2.157 9.15 0 11.297-9.158 20.455-20.454 20.455-3.289 0-6.397-.778-9.15-2.157 3.358 6.703 10.29 11.305 18.297 11.305 11.297 0 20.455-9.158 20.455-20.455 0-8.008-4.602-14.94-11.305-18.298z" fill="url(#SVGID_10_)"/></g></g><path d="m396.808 292.024c.526-14.551.804-29.107.862-43.663-10.903 9.739-24.965 17.76-42.393 19.263 0 0 14.856 52.283 9.343 109.236 19.12-23.191 31.023-52.588 32.188-84.836z" fill="url(#SVGID_11_)"/><g><g><path d="m151.148 381.782c-.022 0-.042 0-.063 0-11.306-.083-27.39-6.11-39.811-34.351-1.89-4.296.061-9.311 4.358-11.2 4.298-1.888 9.311.062 11.2 4.358 4.835 10.993 12.989 24.114 24.378 24.198 4.693.034 8.47 3.867 8.435 8.56-.035 4.671-3.833 8.435-8.497 8.435z" fill="url(#SVGID_12_)"/><path d="m158.56 272.92c-.012 0-.022 0-.034 0-23.805-.093-44.906-9.901-61.022-28.367-11.969-13.714-16.985-27.44-17.193-28.018-1.588-4.416.705-9.284 5.122-10.872 4.407-1.586 9.267.697 10.864 5.099.042.116 4.355 11.714 14.385 23.039 12.935 14.606 29.055 22.049 47.91 22.122 4.693.018 8.484 3.838 8.465 8.531-.018 4.683-3.82 8.466-8.497 8.466z" fill="url(#SVGID_13_)"/></g><g><path d="m358.852 381.782h.064c11.306-.083 27.39-6.11 39.811-34.351 1.89-4.296-.061-9.311-4.358-11.2-4.298-1.888-9.311.062-11.2 4.358-4.835 10.993-12.989 24.114-24.378 24.198-4.693.034-8.47 3.867-8.435 8.56.034 4.671 3.832 8.435 8.496 8.435z" fill="url(#SVGID_14_)"/><path d="m351.44 272.92h.034c23.805-.093 44.906-9.901 61.022-28.367 11.969-13.714 16.985-27.44 17.193-28.018 1.588-4.416-.705-9.284-5.122-10.872-4.407-1.586-9.267.697-10.864 5.099-.042.116-4.355 11.714-14.385 23.039-12.935 14.606-29.055 22.049-47.91 22.122-4.693.018-8.484 3.838-8.465 8.531.018 4.683 3.82 8.466 8.497 8.466z" fill="url(#SVGID_15_)"/></g></g><path d="m263.749 332.009h-17.499c-14.023 0-24.949-12.164-23.449-26.106l9.149-85.048h46.098l9.149 85.048c1.501 13.942-9.424 26.106-23.448 26.106z" fill="url(#SVGID_16_)"/><g><path d="m362.898 271.881c-3.245-9.631-11.697-16.974-22.278-19.238-56.862-12.166-114.38-12.166-171.241 0-10.581 2.264-19.033 9.607-22.278 19.238-14.365 42.633-14.363 85.712 0 128.34 3.245 9.631 11.697 16.974 22.278 19.238 56.861 12.166 114.378 12.166 171.241 0 10.581-2.264 19.033-9.607 22.278-19.237 14.363-42.63 14.365-85.708 0-128.341z" fill="url(#SVGID_17_)"/><path d="m362.898 271.881c-3.245-9.631-11.697-16.974-22.278-19.238-56.862-12.166-114.38-12.166-171.241 0-10.581 2.264-19.033 9.607-22.278 19.238-14.365 42.633-14.363 85.712 0 128.34 3.245 9.631 11.697 16.974 22.278 19.238 56.861 12.166 114.378 12.166 171.241 0 10.581-2.264 19.033-9.607 22.278-19.237 14.363-42.63 14.365-85.708 0-128.341z" fill="url(#SVGID_18_)"/><path d="m152.053 273.051c68.368-14.628 137.526-14.628 205.895 0 1.732.371 3.417.856 5.044 1.445 1.439.521 2.85-.848 2.362-2.299-.004-.013-.009-.026-.013-.039-3.319-9.849-11.962-17.358-22.782-19.673-58.149-12.441-116.969-12.441-175.117 0-10.82 2.315-19.463 9.824-22.782 19.673-.004.013-.009.026-.013.039-.488 1.451.923 2.82 2.362 2.299 1.627-.589 3.311-1.074 5.044-1.445z" fill="url(#SVGID_19_)"/><path d="m141.958 382.432c1.44 5.936 3.149 11.867 5.144 17.789 3.245 9.631 11.697 16.974 22.278 19.238 56.861 12.166 114.378 12.166 171.241 0 10.581-2.264 19.033-9.607 22.278-19.237 1.995-5.922 3.704-11.852 5.144-17.789h-226.085z" fill="url(#SVGID_20_)"/><path d="m340.62 419.458c10.581-2.264 19.033-9.607 22.278-19.237 11.237-33.35 13.682-66.974 7.337-100.445-76.549-15.826-153.922-15.826-230.471 0-6.345 33.471-3.899 67.096 7.337 100.445 3.245 9.631 11.697 16.974 22.278 19.238 56.862 12.165 114.379 12.165 171.241-.001z" fill="url(#SVGID_21_)"/><path d="m340.62 419.458c10.581-2.264 19.033-9.607 22.278-19.237 6.712-19.921 10.285-39.939 10.723-59.965-78.782-16.774-158.463-16.773-237.243 0 .439 20.026 4.012 40.044 10.724 59.965 3.245 9.631 11.697 16.974 22.278 19.238 56.861 12.165 114.378 12.165 171.24-.001z" fill="url(#SVGID_22_)"/><path d="m340.62 419.458c10.581-2.264 19.033-9.607 22.278-19.237 2.04-6.055 3.786-12.118 5.246-18.189-75.17-15.255-151.119-15.255-226.288 0 1.46 6.07 3.206 12.134 5.246 18.189 3.245 9.631 11.697 16.974 22.278 19.238 56.861 12.165 114.378 12.165 171.24-.001z" fill="url(#SVGID_23_)"/></g><path d="m432.831 201.696c-.179-9.311-.428-18.621-.76-27.929-3.407-95.456-81.554-171.181-177.071-171.181-95.249 0-173.605 75.306-177.046 170.492-.297 8.202-.517 25.41-.694 33.614l168.502-23.144c41.598-5.713 79.221-27.718 104.594-61.173l17.926 57.755c3.296 10.62 12.085 18.622 22.967 20.91 2.074.436 4.188.656 6.308.656z" fill="url(#SVGID_24_)"/><path d="m374.156 48.714c-2.931 37.404-23.801 73.661-23.801 73.661l17.926 57.755c3.296 10.62 12.085 18.622 22.967 20.91 2.074.436 4.188.656 6.308.656h35.274c-.179-9.311-.428-18.621-.76-27.929-1.771-49.652-23.772-93.958-57.914-125.053z" fill="url(#SVGID_25_)"/></g></svg>